<?xml version="1.0" encoding="utf-8"?>
<svg data-name="Layer 1" width="437.37008" height="777.68742" viewBox="0 0 437.37008 777.68742" xmlns="http://www.w3.org/2000/svg">
  <path d="M 350.775 729.778 L 87.932 729.778 C 47.65 729.778 14.995 700.944 14.996 665.376 L 14.996 64.402 C 15.04 28.85 47.669 0.04 87.932 0 L 350.774 0 C 391.036 0.04 423.663 28.85 423.71 64.402 L 423.71 172.947 L 428.238 172.947 L 428.238 252.923 L 423.71 252.923 L 423.71 665.376 C 423.71 700.944 391.054 729.778 350.775 729.778 Z M 87.932 2 C 48.919 2.039 17.305 29.954 17.26 64.402 L 17.26 665.376 C 17.26 699.839 48.9 727.778 87.931 727.778 L 350.774 727.778 C 389.802 727.778 421.444 699.84 421.444 665.376 L 421.444 250.923 L 425.973 250.923 L 425.973 174.947 L 421.444 174.947 L 421.444 64.402 C 421.4 29.954 389.786 2.039 350.774 2 Z" fill="#3f3d56" style=""/>
  <path d="M779.31643,434.26944h-34.7908a9.94023,9.94023,0,1,1,0-19.88046h34.7908a9.94023,9.94023,0,1,1,0,19.88046Z" transform="translate(-380.85104 -60.89856)" fill="#fff"/>
  <path d="M709.573,240.50807H690.214a5.53114,5.53114,0,1,1,0-11.06227h19.359a5.53114,5.53114,0,0,1,0,11.06227Z" transform="translate(-380.85104 -60.89856)" fill="#fff"/>
  <path d="M709.573,566.50807H690.214a5.53113,5.53113,0,1,1,0-11.06227h19.359a5.53114,5.53114,0,0,1,0,11.06227Z" transform="translate(-380.85104 -60.89856)" fill="#fff"/>
  <path d="M709.573,697.50807H690.214a5.53113,5.53113,0,1,1,0-11.06227h19.359a5.53114,5.53114,0,0,1,0,11.06227Z" transform="translate(-380.85104 -60.89856)" fill="#fff"/>
  <text style="white-space: pre; fill: rgb(51, 51, 51); font-family: Arial, sans-serif; font-size: 37.6px;" x="847.531" y="370.86"> </text>
  <text style="white-space: pre; fill: rgb(51, 51, 51); font-family: Arial, sans-serif; font-size: 37.6px;" x="906.63" y="380.262"> </text>
</svg>